<?xml version="1.0" encoding="utf-8"?>
<!-- Generator: Adobe Illustrator 25.1.0, SVG Export Plug-In . SVG Version: 6.00 Build 0)  -->
<svg version="1.1" id="Capa_1" xmlns="http://www.w3.org/2000/svg" xmlns:xlink="http://www.w3.org/1999/xlink" x="0px" y="0px"
	 width="146.4px" height="41.2px" viewBox="0 0 146.4 41.2" style="enable-background:new 0 0 146.4 41.2;" xml:space="preserve">
<style type="text/css">
	.st0{fill:#FFFFFF;}
</style>
<path class="st0" d="M28.3,26.6V40c0,0,0,0,0,0c0,0,0,0.1,0,0.3c0,0.5-2.8-0.2-4.3-1.4c-0.5-0.4-0.9-0.8-1.1-1.3
	c-0.6-1-0.8-2-0.9-2.5c0,0,0-0.1,0-0.1c-0.1-0.5-0.1-1.6-0.1-3c0-1.6,0-3.7,0.1-5.7c-0.2-3.8-3.4-6.8-7.2-6.8c-4,0-7.2,3.2-7.2,7.2
	c0,4,3.2,7.2,7.2,7.2c4,0,7.1-2.5,7.2-7.2c0,1.4-0.1,7.8,0,8.3c0,0,0,0.1,0,0.1c0.1,0.5,0.3,1.5,0.9,2.5c-2.3,1.7-5.1,2.7-8.2,2.7
	C7.1,40.2,1,34.1,1,26.6s6.1-13.7,13.7-13.7C22.2,12.9,28.3,19,28.3,26.6z M107.7,26.5L107.7,26.5C107.7,26.5,107.7,26.5,107.7,26.5
	C107.7,26.5,107.7,26.5,107.7,26.5L107.7,26.5L107.7,26.5v13.4c0,0,0,0,0,0c0,0,0,0.1,0,0.3c0,0.5-2.8-0.2-4.3-1.4
	c-0.5-0.4-0.9-0.8-1.1-1.3c-0.6-1-0.8-2-0.9-2.5c0,0,0-0.1,0-0.1c-0.1-0.5-0.1-1.6-0.1-3c0-1.4,0-3.1,0.1-4.8c0-0.1,0-0.3,0-0.4
	c0-0.1,0-0.2,0-0.4c-0.1-3.9-3.3-7-7.2-7c-3.9,0-7,3-7.2,6.8c0,0.2,0,0.3,0,0.5c0,0.1,0,0.3,0,0.4c0,1.7,0.1,3.4,0.1,4.8
	c0,1.4,0,2.6-0.1,3c0,0.1,0,0.1,0,0.1c-0.1,0.5-0.3,1.5-0.9,2.5c-0.3,0.5-0.6,0.9-1.1,1.3c-1.6,1.2-4.3,1.9-4.3,1.4
	c0-0.1,0-0.2,0-0.3c0,0,0,0,0,0V26.6h0c0,0,0-0.1,0-0.1c0-4-3.2-7.2-7.2-7.2c-3.9,0-7,3-7.2,6.8c0,0.2,0,0.3,0,0.5
	c0,0.1,0,0.3,0,0.4c0,1.7,0.1,3.4,0.1,4.8c0,1.4,0,2.6-0.1,3c0,0.1,0,0.1,0,0.1c-0.1,0.5-0.3,1.5-0.9,2.5c-0.3,0.5-0.6,0.9-1.1,1.3
	c-1.6,1.2-4.3,1.9-4.3,1.4c0-0.1,0-0.2,0-0.3c0,0,0,0,0,0V26.6v-0.1c0-7.5,6.1-13.7,13.7-13.7c4.2,0,7.9,1.9,10.4,4.9
	c2.5-3,6.3-4.9,10.4-4.9c4.2,0,8,1.9,10.5,4.9C106.5,20.2,107.7,23.2,107.7,26.5C107.7,26.5,107.7,26.5,107.7,26.5
	C107.7,26.5,107.7,26.5,107.7,26.5C107.7,26.5,107.7,26.5,107.7,26.5z M101.3,26.5C101.3,26.5,101.3,26.5,101.3,26.5
	C101.3,26.5,101.3,26.5,101.3,26.5C101.3,26.5,101.3,26.5,101.3,26.5C101.3,26.5,101.3,26.5,101.3,26.5z M145.4,26.5
	C145.4,26.5,145.4,26.5,145.4,26.5C145.4,26.5,145.4,26.5,145.4,26.5L145.4,26.5C145.4,26.5,145.4,26.5,145.4,26.5z M142.2,17.8
	c-2.5-3-6.3-4.9-10.5-4.9c-7.5,0-13.7,6.1-13.7,13.7v0.1v13.3c0,0,0,0,0,0c0,0,0,0.1,0,0.3c0,0.5,2.8-0.2,4.3-1.4
	c0.5-0.4,0.9-0.8,1.1-1.3c0.6-1,0.8-2,0.9-2.5c0,0,0-0.1,0-0.1c0.1-0.5,0.1-1.6,0.1-3c0-1.4,0-3.1-0.1-4.8c0-0.1,0-0.3,0-0.4
	c0-0.2,0-0.3,0-0.5c0.2-3.8,3.4-6.8,7.2-6.8c3.9,0,7.1,3.1,7.2,7c0,0.1,0,0.2,0,0.3c0,0.1,0,0.3,0,0.4c0,1.7-0.1,3.4-0.1,4.8
	c0,1.4,0,2.6,0.1,3c0,0.1,0,0.1,0,0.1c0.1,0.5,0.3,1.5,0.9,2.5c0.3,0.5,0.6,0.9,1.1,1.3c1.6,1.2,4.3,1.9,4.3,1.4c0-0.1,0-0.2,0-0.3
	c0,0,0,0,0,0V26.6v-0.1h0C145.4,23.2,144.2,20.2,142.2,17.8z M57.6,26.7V1.3c0,0,0,0,0,0c0,0,0-0.1,0-0.3c0-0.5-2.8,0.2-4.3,1.4
	c-0.5,0.4-0.9,0.8-1.1,1.3c-0.6,1-0.8,14.1-0.9,14.6c0,0,0,0.1,0,0.1c-0.1,0.5-0.1,1.6-0.1,3c0,1.6,0,3.7,0.1,5.7
	C50.9,31,47.8,34,43.9,34c-4,0-7.2-3.2-7.2-7.2c0-4,3.2-7.2,7.2-7.2c4,0,7.1,2.5,7.2,7.2c0-1.4-0.1-7.8,0-8.3c0,0,0-0.1,0-0.1
	c0.1-0.5,0.1-1.7,0.1-2.8c-2.3-1.7-4.3-2.5-7.4-2.5c-7.5,0-13.7,6.1-13.7,13.7s6.1,13.7,13.7,13.7C51.4,40.4,57.6,34.3,57.6,26.7z
	 M57.6,14.6L57.6,14.6V1.3c0,0,0,0,0,0c0,0,0-0.1,0-0.3c0-0.5-2.8,0.2-4.3,1.4c-0.5,0.4-0.9,0.8-1.1,1.3c-0.6,1-0.8,2-0.9,2.5
	c0,0,0,0.1,0,0.1C51.1,6.8,51,8,51,9.4c0,1.4,0,3.1,0.1,4.8c0,0.1,0,0.3,0,0.4c0,0.2,0,1,0,1.2 M116.2,31.8c0-1.4,0-3.1-0.1-4.8
	c0-0.1,0-0.3,0-0.4c0,0,0-0.1,0-0.1V13.3c0,0,0,0,0,0c0,0,0-0.1,0-0.3c0-0.5-2.8,0.2-4.3,1.4c-0.5,0.4-0.9,0.8-1.1,1.3
	c-0.6,1-0.8,2-0.9,2.5c0,0,0,0.1,0,0.1c-0.1,0.5-0.1,1.6-0.1,3c0,1.4,0,3.1,0.1,4.8c0,0.1,0,0.3,0,0.4c0,0,0,0.1,0,0.1v13.2
	c0,0,0,0,0,0c0,0,0,0.1,0,0.3c0,0.5,2.8-0.2,4.3-1.4c0.5-0.4,0.9-0.8,1.1-1.3c0.6-1,0.8-2,0.9-2.5c0,0,0-0.1,0-0.1
	C116.2,34.4,116.2,33.2,116.2,31.8z M111.8,2.4c-0.5,0.4-0.9,0.8-1.1,1.3c-0.6,1-0.8,2-0.9,2.5c0,0,0,0.1,0,0.1
	c-0.1,0.4-0.1,0.5-0.1,1.2l0,0v2.3c0,0,0,0,0,0c0,0,0,0.1,0,0.3c0,0.5,2.5-0.1,4.1-1.2h0l0,0c0.1-0.1,0.2-0.1,0.3-0.2
	c0.5-0.4,0.9-0.8,1.1-1.3c0.6-1,0.8-2,0.9-2.5c0,0,0-0.1,0-0.1c0.1-0.5,0.1-0.5,0.1-2c0,0,0-0.1,0-0.1l0,0V1.3c0,0,0,0,0,0
	c0,0,0-0.1,0-0.3C116.1,0.5,113.4,1.2,111.8,2.4z"/>
</svg>
